<svg width="33" height="33" viewBox="0 0 33 33" fill="none" xmlns="http://www.w3.org/2000/svg">
<path d="M4.5 0.5C3.43913 0.5 2.42172 0.921427 1.67157 1.67157C0.921427 2.42172 0.5 3.43913 0.5 4.5L0.5 28.5C0.5 29.5609 0.921427 30.5783 1.67157 31.3284C2.42172 32.0786 3.43913 32.5 4.5 32.5H28.5C29.5609 32.5 30.5783 32.0786 31.3284 31.3284C32.0786 30.5783 32.5 29.5609 32.5 28.5V4.5C32.5 3.43913 32.0786 2.42172 31.3284 1.67157C30.5783 0.921427 29.5609 0.5 28.5 0.5L4.5 0.5ZM16.5 8.5C17.57 8.5 18.408 9.424 18.3 10.49L17.6 17.504C17.5765 17.7795 17.4504 18.0362 17.2467 18.2233C17.043 18.4103 16.7765 18.5141 16.5 18.5141C16.2235 18.5141 15.957 18.4103 15.7533 18.2233C15.5496 18.0362 15.4235 17.7795 15.4 17.504L14.7 10.49C14.6749 10.2385 14.7027 9.98446 14.7817 9.74433C14.8607 9.50421 14.9891 9.2833 15.1587 9.09582C15.3283 8.90835 15.5352 8.75848 15.7662 8.65586C15.9973 8.55324 16.2472 8.50014 16.5 8.5ZM16.504 20.5C17.0344 20.5 17.5431 20.7107 17.9182 21.0858C18.2933 21.4609 18.504 21.9696 18.504 22.5C18.504 23.0304 18.2933 23.5391 17.9182 23.9142C17.5431 24.2893 17.0344 24.5 16.504 24.5C15.9736 24.5 15.4649 24.2893 15.0898 23.9142C14.7147 23.5391 14.504 23.0304 14.504 22.5C14.504 21.9696 14.7147 21.4609 15.0898 21.0858C15.4649 20.7107 15.9736 20.5 16.504 20.5Z" fill="white"/>
</svg>
