<svg width="70" height="36" viewBox="0 0 70 36" fill="none" xmlns="http://www.w3.org/2000/svg">
<path d="M52.7823 0.5C47.0143 0.5 42.4149 3.49396 39.5726 6.00667L39.4724 6.09562L37.8536 7.91417L41.427 13.9823L44.0718 11.2421C46.8393 8.82708 49.9286 7.5 52.7823 7.5C58.5403 7.5 63.2258 12.2104 63.2258 18C63.2258 23.7896 58.5403 28.5 52.7823 28.5C44.0323 28.5 38.0851 16.549 38.0258 16.4279C37.6815 15.709 30.1395 0.5 17.2177 0.5C7.72399 0.5 0 8.35021 0 18C0 27.6498 7.72399 35.5 17.2177 35.5C21.8679 35.5 26.4448 33.5881 30.4542 29.97L30.5403 29.8913L32.1464 28.0858L28.5716 22.0177L25.9141 24.771C23.1452 27.2458 20.2181 28.5 17.2177 28.5C11.4597 28.5 6.77419 23.7896 6.77419 18C6.77419 12.2104 11.4597 7.5 17.2177 7.5C25.9677 7.5 31.9149 19.451 31.9742 19.5721C32.3185 20.291 39.8605 35.5 52.7823 35.5C62.276 35.5 70 27.6498 70 18C70 8.35021 62.276 0.5 52.7823 0.5Z" fill="black"/>
</svg>
