<svg xmlns="http://www.w3.org/2000/svg" viewBox="0 0 48 47">
<g transform="translate(-986.167 -37.125)">
<path fill-rule="evenodd" clip-rule="evenodd" d="M994.833 37.125C992.535 37.125 990.33 38.0205 988.705 39.6146C987.08 41.2087 986.167 43.3707 986.167 45.625V75.375C986.167 77.6293 987.08 79.7913 988.705 81.3854C990.33 82.9795 992.535 83.875 994.833 83.875H1025.17C1027.47 83.875 1029.67 82.9795 1031.29 81.3854C1032.92 79.7913 1033.83 77.6293 1033.83 75.375V45.625C1033.83 43.3707 1032.92 41.2087 1031.29 39.6146C1029.67 38.0205 1027.47 37.125 1025.17 37.125H994.833ZM997.444 51.8088C998.424 51.8088 999.364 51.427 1000.06 50.7476C1000.75 50.0681 1001.14 49.1465 1001.14 48.1856C1001.14 47.2247 1000.75 46.3032 1000.06 45.6237C999.364 44.9442 998.424 44.5625 997.444 44.5625C996.464 44.5625 995.525 44.9442 994.832 45.6237C994.139 46.3032 993.75 47.2247 993.75 48.1856C993.75 49.1465 994.139 50.0681 994.832 50.7476C995.525 51.427 996.464 51.8087 997.444 51.8088ZM1001.14 76.4375V54.7051H993.75V76.4375H1001.14H1001.14ZM1010.74 54.7051H1004.09V76.4375H1010.74V63.3263C1011.59 61.962 1013.07 60.5 1015.17 60.5C1018.12 60.5 1018.86 63.3985 1018.86 64.8477V76.4375H1026.25V64.8477C1026.25 60.9632 1024.52 54.7051 1018.12 54.7051C1014.06 54.7051 1011.8 56.1608 1010.74 57.525V54.7051H1010.74Z" fill="white"/>
</g>
</svg>
